<svg xmlns="http://www.w3.org/2000/svg" width="80" height="72" viewBox="0 0 80 72" fill="none">
<rect width="100%" height="100%" fill="none"/>
<circle cx="8.00" cy="8.00" r="0.72" fill="#0A0A0A"/>
<circle cx="16.00" cy="8.00" r="1.30" fill="#0A0A0A"/>
<circle cx="24.00" cy="8.00" r="0.72" fill="#0A0A0A"/>
<circle cx="32.00" cy="8.00" r="0.72" fill="#0A0A0A"/>
<circle cx="40.00" cy="8.00" r="0.72" fill="#0A0A0A"/>
<circle cx="48.00" cy="8.00" r="1.30" fill="#0A0A0A"/>
<circle cx="56.00" cy="8.00" r="0.72" fill="#0A0A0A"/>
<circle cx="64.00" cy="8.00" r="0.72" fill="#0A0A0A"/>
<circle cx="72.00" cy="8.00" r="0.72" fill="#0A0A0A"/>
<circle cx="8.00" cy="16.00" r="0.72" fill="#0A0A0A"/>
<circle cx="16.00" cy="16.00" r="0.72" fill="#0A0A0A"/>
<circle cx="24.00" cy="16.00" r="0.72" fill="#0A0A0A"/>
<circle cx="32.00" cy="16.00" r="2.60" fill="#0A0A0A"/>
<circle cx="40.00" cy="16.00" r="2.15" fill="#0A0A0A"/>
<circle cx="48.00" cy="16.00" r="2.15" fill="#0A0A0A"/>
<circle cx="56.00" cy="16.00" r="0.72" fill="#0A0A0A"/>
<circle cx="64.00" cy="16.00" r="0.72" fill="#0A0A0A"/>
<circle cx="72.00" cy="16.00" r="0.72" fill="#0A0A0A"/>
<circle cx="8.00" cy="24.00" r="0.72" fill="#0A0A0A"/>
<circle cx="16.00" cy="24.00" r="0.72" fill="#0A0A0A"/>
<circle cx="24.00" cy="24.00" r="1.30" fill="#0A0A0A"/>
<circle cx="32.00" cy="24.00" r="2.60" fill="#0A0A0A"/>
<circle cx="40.00" cy="24.00" r="0.72" fill="#0A0A0A"/>
<circle cx="48.00" cy="24.00" r="0.72" fill="#0A0A0A"/>
<circle cx="56.00" cy="24.00" r="2.15" fill="#0A0A0A"/>
<circle cx="64.00" cy="24.00" r="1.30" fill="#0A0A0A"/>
<circle cx="72.00" cy="24.00" r="0.72" fill="#0A0A0A"/>
<circle cx="8.00" cy="32.00" r="0.72" fill="#0A0A0A"/>
<circle cx="16.00" cy="32.00" r="0.72" fill="#0A0A0A"/>
<circle cx="24.00" cy="32.00" r="0.72" fill="#0A0A0A"/>
<circle cx="32.00" cy="32.00" r="2.60" fill="#0A0A0A"/>
<circle cx="40.00" cy="32.00" r="0.72" fill="#0A0A0A"/>
<circle cx="48.00" cy="32.00" r="0.72" fill="#0A0A0A"/>
<circle cx="56.00" cy="32.00" r="2.15" fill="#0A0A0A"/>
<circle cx="64.00" cy="32.00" r="0.72" fill="#0A0A0A"/>
<circle cx="72.00" cy="32.00" r="0.72" fill="#0A0A0A"/>
<circle cx="8.00" cy="40.00" r="0.72" fill="#0A0A0A"/>
<circle cx="16.00" cy="40.00" r="0.72" fill="#0A0A0A"/>
<circle cx="24.00" cy="40.00" r="0.72" fill="#0A0A0A"/>
<circle cx="32.00" cy="40.00" r="2.60" fill="#0A0A0A"/>
<circle cx="40.00" cy="40.00" r="2.15" fill="#0A0A0A"/>
<circle cx="48.00" cy="40.00" r="2.15" fill="#0A0A0A"/>
<circle cx="56.00" cy="40.00" r="0.72" fill="#0A0A0A"/>
<circle cx="64.00" cy="40.00" r="0.72" fill="#0A0A0A"/>
<circle cx="72.00" cy="40.00" r="0.72" fill="#0A0A0A"/>
<circle cx="8.00" cy="48.00" r="0.72" fill="#0A0A0A"/>
<circle cx="16.00" cy="48.00" r="0.72" fill="#0A0A0A"/>
<circle cx="24.00" cy="48.00" r="0.72" fill="#0A0A0A"/>
<circle cx="32.00" cy="48.00" r="2.60" fill="#0A0A0A"/>
<circle cx="40.00" cy="48.00" r="0.72" fill="#0A0A0A"/>
<circle cx="48.00" cy="48.00" r="0.72" fill="#0A0A0A"/>
<circle cx="56.00" cy="48.00" r="0.72" fill="#0A0A0A"/>
<circle cx="64.00" cy="48.00" r="1.30" fill="#0A0A0A"/>
<circle cx="72.00" cy="48.00" r="0.72" fill="#0A0A0A"/>
<circle cx="8.00" cy="56.00" r="0.72" fill="#0A0A0A"/>
<circle cx="16.00" cy="56.00" r="1.30" fill="#0A0A0A"/>
<circle cx="24.00" cy="56.00" r="0.72" fill="#0A0A0A"/>
<circle cx="32.00" cy="56.00" r="2.60" fill="#0A0A0A"/>
<circle cx="40.00" cy="56.00" r="0.72" fill="#0A0A0A"/>
<circle cx="48.00" cy="56.00" r="1.30" fill="#0A0A0A"/>
<circle cx="56.00" cy="56.00" r="0.72" fill="#0A0A0A"/>
<circle cx="64.00" cy="56.00" r="0.72" fill="#0A0A0A"/>
<circle cx="72.00" cy="56.00" r="0.72" fill="#0A0A0A"/>
<circle cx="8.00" cy="64.00" r="0.72" fill="#0A0A0A"/>
<circle cx="16.00" cy="64.00" r="0.72" fill="#0A0A0A"/>
<circle cx="24.00" cy="64.00" r="0.72" fill="#0A0A0A"/>
<circle cx="32.00" cy="64.00" r="0.72" fill="#0A0A0A"/>
<circle cx="40.00" cy="64.00" r="0.72" fill="#0A0A0A"/>
<circle cx="48.00" cy="64.00" r="0.72" fill="#0A0A0A"/>
<circle cx="56.00" cy="64.00" r="0.72" fill="#0A0A0A"/>
<circle cx="64.00" cy="64.00" r="0.72" fill="#0A0A0A"/>
<circle cx="72.00" cy="64.00" r="0.72" fill="#0A0A0A"/>
</svg>