<svg xmlns="http://www.w3.org/2000/svg" viewBox="0 0 521.9 141.0" width="522" height="141" fill="#0A0A0A" role="img" aria-label="plurum">
  <path transform="translate(-11.70,108.00) scale(0.15000,-0.15000)" d="M78 -220V496H146L156 414H162Q181 454 223.0 481.0Q265 508 322 508Q382 508 430.5 478.0Q479 448 507.0 389.5Q535 331 535 247Q535 164 506.5 106.0Q478 48 428.5 18.0Q379 -12 315 -12Q258 -12 218.5 12.5Q179 37 162 70V-220ZM305 68Q368 68 409.0 112.5Q450 157 450 248Q450 339 409.0 383.5Q368 428 305 428Q242 428 201.0 383.5Q160 339 160 248Q160 157 201.0 112.5Q242 68 305 68Z"/>
  <path transform="translate(78.30,108.00) scale(0.15000,-0.15000)" d="M75 0V72H244V623Q244 648 219 648H93V720H239Q282 720 305.0 697.0Q328 674 328 631V72H497V0Z"/>
  <path transform="translate(168.30,108.00) scale(0.15000,-0.15000)" d="M265 -12Q175 -12 129.0 42.0Q83 96 83 198V496H167V208Q167 142 196.5 104.5Q226 67 286 67Q346 67 387.0 107.5Q428 148 428 224V496H512V0H442L433 75H428Q408 39 365.0 13.5Q322 -12 265 -12Z"/>
  <path transform="translate(258.30,108.00) scale(0.15000,-0.15000)" d="M84 0V72H211V399Q211 424 187 424H97V496H218Q251 496 271.0 478.0Q291 460 291 425V404H295Q307 454 340.5 481.0Q374 508 434 508H525V419H422Q361 419 328.0 378.5Q295 338 295 275V72H451V0Z"/>
  <path transform="translate(348.30,108.00) scale(0.15000,-0.15000)" d="M265 -12Q175 -12 129.0 42.0Q83 96 83 198V496H167V208Q167 142 196.5 104.5Q226 67 286 67Q346 67 387.0 107.5Q428 148 428 224V496H512V0H442L433 75H428Q408 39 365.0 13.5Q322 -12 265 -12Z"/>
  <path transform="translate(438.30,108.00) scale(0.15000,-0.15000)" d="M37 0V496H106L115 438H120Q133 468 159.5 488.0Q186 508 224 508Q262 508 288.5 489.5Q315 471 327 438H331Q344 468 373.0 488.0Q402 508 443 508Q500 508 528.5 469.5Q557 431 557 367V0H475V354Q475 390 460.5 411.0Q446 432 414 432Q381 432 360.0 407.0Q339 382 339 336V0H256V354Q256 390 242.0 411.0Q228 432 196 432Q163 432 141.5 407.0Q120 382 120 336V0Z"/>
</svg>
